<svg width="563" height="352" viewBox="0 0 563 352" fill="none" xmlns="http://www.w3.org/2000/svg">
<g clip-path="url(#clip0_965_2594)">
<path d="M107.044 216.32C109.319 214.045 113.008 214.045 115.283 216.32C121.616 222.653 133.659 234.695 140.001 241.028C142.276 243.303 142.276 246.993 140.001 249.268C137.726 251.543 134.037 251.543 131.762 249.268C125.314 242.82 113.491 230.997 107.044 224.55C104.769 222.275 104.769 218.586 107.044 216.311V216.32Z" fill="#FAFAFC"/>
<path d="M107.044 216.32C109.319 214.045 113.008 214.045 115.283 216.32C121.616 222.653 133.659 234.695 140.001 241.028C142.276 243.303 142.276 246.993 140.001 249.268C137.726 251.543 134.037 251.543 131.762 249.268C125.314 242.82 113.491 230.997 107.044 224.55C104.769 222.275 104.769 218.586 107.044 216.311V216.32Z" fill="black" fill-opacity="0.2"/>
<path d="M148.231 257.516C150.506 255.241 154.195 255.241 156.471 257.516C159 260.046 162.18 263.217 164.71 265.755C166.985 268.03 166.985 271.719 164.71 273.994C162.435 276.269 158.746 276.269 156.471 273.994C153.941 271.465 150.761 268.294 148.231 265.755C145.956 263.48 145.956 259.791 148.231 257.516Z" fill="#FAFAFC"/>
<path d="M148.231 257.516C150.506 255.241 154.195 255.241 156.471 257.516C159 260.046 162.18 263.217 164.71 265.755C166.985 268.03 166.985 271.719 164.71 273.994C162.435 276.269 158.746 276.269 156.471 273.994C153.941 271.465 150.761 268.294 148.231 265.755C145.956 263.48 145.956 259.791 148.231 257.516Z" fill="black" fill-opacity="0.2"/>
<path d="M172.941 282.225C175.216 279.95 178.905 279.95 181.18 282.225C185.782 286.828 193.056 294.101 197.649 298.703C199.924 300.978 199.924 304.668 197.649 306.943C195.374 309.218 191.685 309.218 189.41 306.943C184.807 302.349 177.534 295.067 172.932 290.473C170.657 288.198 170.657 284.509 172.932 282.234L172.941 282.225Z" fill="#FAFAFC"/>
<path d="M172.941 282.225C175.216 279.95 178.905 279.95 181.18 282.225C185.782 286.828 193.056 294.101 197.649 298.703C199.924 300.978 199.924 304.668 197.649 306.943C195.374 309.218 191.685 309.218 189.41 306.943C184.807 302.349 177.534 295.067 172.932 290.473C170.657 288.198 170.657 284.509 172.932 282.234L172.941 282.225Z" fill="black" fill-opacity="0.2"/>
<path d="M205.862 315.208L205.897 315.173C208.172 312.898 211.862 312.898 214.137 315.173C218.748 319.785 225.995 327.031 230.615 331.652C236.948 337.985 248.991 350.027 255.324 356.36C257.599 358.636 257.599 362.325 255.324 364.6C253.049 366.875 249.36 366.875 247.085 364.6C240.752 358.267 228.709 346.224 222.376 339.891C217.747 335.262 210.483 327.997 205.862 323.386C203.605 321.129 203.605 317.474 205.862 315.217V315.208Z" fill="#FAFAFC"/>
<path d="M205.862 315.208L205.897 315.173C208.172 312.898 211.862 312.898 214.137 315.173C218.748 319.785 225.995 327.031 230.615 331.652C236.948 337.985 248.991 350.027 255.324 356.36C257.599 358.636 257.599 362.325 255.324 364.6C253.049 366.875 249.36 366.875 247.085 364.6C240.752 358.267 228.709 346.224 222.376 339.891C217.747 335.262 210.483 327.997 205.862 323.386C203.605 321.129 203.605 317.474 205.862 315.217V315.208Z" fill="black" fill-opacity="0.2"/>
<path d="M107.474 182.932L107.51 182.897C109.767 180.64 113.421 180.64 115.679 182.897C120.272 187.491 127.572 194.79 132.183 199.402C134.458 201.677 134.458 205.366 132.183 207.641C129.908 209.916 126.219 209.916 123.944 207.641C119.341 203.039 112.068 195.766 107.466 191.163C105.191 188.888 105.191 185.199 107.466 182.924L107.474 182.932Z" fill="#FAFAFC"/>
<path d="M107.474 182.932L107.51 182.897C109.767 180.64 113.421 180.64 115.679 182.897C120.272 187.491 127.572 194.79 132.183 199.402C134.458 201.677 134.458 205.366 132.183 207.641C129.908 209.916 126.219 209.916 123.944 207.641C119.341 203.039 112.068 195.766 107.466 191.163C105.191 188.888 105.191 185.199 107.466 182.924L107.474 182.932Z" fill="black" fill-opacity="0.2"/>
<path d="M140.432 215.889C142.707 213.614 146.396 213.614 148.671 215.889C160.652 227.87 194.347 261.565 206.328 273.546C208.603 275.821 208.603 279.51 206.328 281.785C204.053 284.06 200.364 284.06 198.089 281.785C186.108 269.804 152.413 236.109 140.432 224.128C138.157 221.853 138.157 218.164 140.432 215.889Z" fill="#FAFAFC"/>
<path d="M140.432 215.889C142.707 213.614 146.396 213.614 148.671 215.889C160.652 227.87 194.347 261.565 206.328 273.546C208.603 275.821 208.603 279.51 206.328 281.785C204.053 284.06 200.364 284.06 198.089 281.785C186.108 269.804 152.413 236.109 140.432 224.128C138.157 221.853 138.157 218.164 140.432 215.889Z" fill="black" fill-opacity="0.2"/>
<path d="M214.567 290.025C216.842 287.75 220.531 287.75 222.806 290.025C229.14 296.358 241.182 308.4 247.515 314.734C250.045 317.263 253.216 320.434 255.746 322.964C258.021 325.239 258.021 328.928 255.746 331.203C253.471 333.478 249.782 333.478 247.507 331.203C244.977 328.674 241.797 325.494 239.267 322.964C232.934 316.631 220.892 304.597 214.558 298.255C212.283 295.98 212.283 292.291 214.558 290.016L214.567 290.025Z" fill="#FAFAFC"/>
<path d="M214.567 290.025C216.842 287.75 220.531 287.75 222.806 290.025C229.14 296.358 241.182 308.4 247.515 314.734C250.045 317.263 253.216 320.434 255.746 322.964C258.021 325.239 258.021 328.928 255.746 331.203C253.471 333.478 249.782 333.478 247.507 331.203C244.977 328.674 241.797 325.494 239.267 322.964C232.934 316.631 220.892 304.597 214.558 298.255C212.283 295.98 212.283 292.291 214.558 290.016L214.567 290.025Z" fill="black" fill-opacity="0.2"/>
<path d="M48.9482 192.041C51.2232 189.766 54.9124 189.766 57.1874 192.041C69.0544 203.908 102.793 237.638 114.853 249.707C117.128 251.982 117.128 255.671 114.853 257.946L114.818 257.982C112.561 260.239 108.907 260.239 106.649 257.982C94.8086 246.132 60.8064 212.139 48.957 200.28C46.6819 198.005 46.6819 194.316 48.957 192.041H48.9482Z" fill="#FAFAFC"/>
<path d="M48.9482 192.041C51.2232 189.766 54.9124 189.766 57.1874 192.041C69.0544 203.908 102.793 237.638 114.853 249.707C117.128 251.982 117.128 255.671 114.853 257.946L114.818 257.982C112.561 260.239 108.907 260.239 106.649 257.982C94.8086 246.132 60.8064 212.139 48.957 200.28C46.6819 198.005 46.6819 194.316 48.957 192.041H48.9482Z" fill="black" fill-opacity="0.2"/>
<path d="M123.049 266.212L123.084 266.177C125.359 263.902 129.048 263.902 131.323 266.177C135.926 270.78 143.199 278.053 147.802 282.655C150.077 284.93 150.077 288.62 147.802 290.895C145.527 293.17 141.837 293.17 139.562 290.895C134.951 286.283 127.651 278.984 123.057 274.39C120.8 272.132 120.8 268.478 123.057 266.212H123.049Z" fill="#FAFAFC"/>
<path d="M123.049 266.212L123.084 266.177C125.359 263.902 129.048 263.902 131.323 266.177C135.926 270.78 143.199 278.053 147.802 282.655C150.077 284.93 150.077 288.62 147.802 290.895C145.527 293.17 141.837 293.17 139.562 290.895C134.951 286.283 127.651 278.984 123.057 274.39C120.8 272.132 120.8 268.478 123.057 266.212H123.049Z" fill="black" fill-opacity="0.2"/>
<path d="M156.04 299.134C158.315 296.859 162.004 296.859 164.279 299.134C172.501 307.347 189.181 324.036 197.236 332.082C199.511 334.357 199.511 338.046 197.236 340.321C194.961 342.596 191.272 342.596 188.997 340.321C180.925 332.249 164.121 315.446 156.04 307.364C153.765 305.089 153.765 301.4 156.04 299.125V299.134Z" fill="#FAFAFC"/>
<path d="M156.04 299.134C158.315 296.859 162.004 296.859 164.279 299.134C172.501 307.347 189.181 324.036 197.236 332.082C199.511 334.357 199.511 338.046 197.236 340.321C194.961 342.596 191.272 342.596 188.997 340.321C180.925 332.249 164.121 315.446 156.04 307.364C153.765 305.089 153.765 301.4 156.04 299.125V299.134Z" fill="black" fill-opacity="0.2"/>
<path d="M205.458 348.561C206.881 347.138 208.857 346.602 210.693 346.962C211.8 347.173 212.845 347.709 213.697 348.561C225.573 360.428 259.303 394.167 271.363 406.227C273.638 408.502 273.638 412.191 271.363 414.466L271.328 414.501C269.071 416.759 265.416 416.759 263.15 414.501C251.31 402.66 217.316 368.667 205.458 356.809C205.177 356.528 204.922 356.22 204.711 355.895C203.218 353.629 203.464 350.564 205.458 348.57V348.561Z" fill="#FAFAFC"/>
<path d="M205.458 348.561C206.881 347.138 208.857 346.602 210.693 346.962C211.8 347.173 212.845 347.709 213.697 348.561C225.573 360.428 259.303 394.167 271.363 406.227C273.638 408.502 273.638 412.191 271.363 414.466L271.328 414.501C269.071 416.759 265.416 416.759 263.15 414.501C251.31 402.66 217.316 368.667 205.458 356.809C205.177 356.528 204.922 356.22 204.711 355.895C203.218 353.629 203.464 350.564 205.458 348.57V348.561Z" fill="black" fill-opacity="0.2"/>
<path d="M81.4657 258.377L81.5008 258.342C83.7582 256.084 87.4123 256.084 89.6697 258.342C94.2812 262.962 101.546 270.226 106.175 274.846C108.45 277.121 108.45 280.811 106.175 283.086C103.9 285.361 100.21 285.361 97.9354 283.086C93.3151 278.465 86.0772 271.227 81.4569 266.607C79.1818 264.332 79.1818 260.643 81.4569 258.368L81.4657 258.377Z" fill="#FAFAFC"/>
<path d="M81.4657 258.377L81.5008 258.342C83.7582 256.084 87.4123 256.084 89.6697 258.342C94.2812 262.962 101.546 270.226 106.175 274.846C108.45 277.121 108.45 280.811 106.175 283.086C103.9 285.361 100.21 285.361 97.9354 283.086C93.3151 278.465 86.0772 271.227 81.4569 266.607C79.1818 264.332 79.1818 260.643 81.4569 258.368L81.4657 258.377Z" fill="black" fill-opacity="0.2"/>
<path d="M114.414 291.333C116.689 289.058 120.378 289.058 122.644 291.333C125.174 293.863 128.354 297.043 130.883 299.572C133.158 301.847 133.158 305.537 130.883 307.812C128.608 310.087 124.919 310.087 122.644 307.812C120.114 305.282 116.935 302.111 114.405 299.572C112.13 297.297 112.13 293.608 114.405 291.333H114.414Z" fill="#FAFAFC"/>
<path d="M114.414 291.333C116.689 289.058 120.378 289.058 122.644 291.333C125.174 293.863 128.354 297.043 130.883 299.572C133.158 301.847 133.158 305.537 130.883 307.812C128.608 310.087 124.919 310.087 122.644 307.812C120.114 305.282 116.935 302.111 114.405 299.572C112.13 297.297 112.13 293.608 114.405 291.333H114.414Z" fill="black" fill-opacity="0.2"/>
<path d="M139.132 316.042C141.407 313.767 145.096 313.767 147.371 316.042C160.389 329.051 179.959 348.63 196.798 365.469C204.694 373.366 221.849 390.512 229.746 398.417C232.021 400.692 232.021 404.381 229.746 406.656C227.471 408.931 223.782 408.931 221.507 406.656C213.601 398.76 196.455 381.605 188.558 373.708C176.639 361.788 151.86 337.009 139.132 324.281C136.857 322.006 136.857 318.317 139.132 316.042Z" fill="#FAFAFC"/>
<path d="M139.132 316.042C141.407 313.767 145.096 313.767 147.371 316.042C160.389 329.051 179.959 348.63 196.798 365.469C204.694 373.366 221.849 390.512 229.746 398.417C232.021 400.692 232.021 404.381 229.746 406.656C227.471 408.931 223.782 408.931 221.507 406.656C213.601 398.76 196.455 381.605 188.558 373.708C176.639 361.788 151.86 337.009 139.132 324.281C136.857 322.006 136.857 318.317 139.132 316.042Z" fill="black" fill-opacity="0.2"/>
<path d="M56.3172 267.046C58.5922 264.771 62.2814 264.771 64.5565 267.046C69.1592 271.649 76.4322 278.922 81.035 283.525C83.31 285.8 83.31 289.489 81.035 291.764C78.7599 294.039 75.0707 294.039 72.7957 291.764C68.193 287.161 60.9199 279.888 56.3172 275.294C54.0422 273.019 54.0422 269.33 56.3172 267.055V267.046Z" fill="#FAFAFC"/>
<path d="M56.3172 267.046C58.5922 264.771 62.2814 264.771 64.5565 267.046C69.1592 271.649 76.4322 278.922 81.035 283.525C83.31 285.8 83.31 289.489 81.035 291.764C78.7599 294.039 75.0707 294.039 72.7957 291.764C68.193 287.161 60.9199 279.888 56.3172 275.294C54.0422 273.019 54.0422 269.33 56.3172 267.055V267.046Z" fill="black" fill-opacity="0.2"/>
<path d="M89.2656 300.003C91.5406 297.728 95.2298 297.728 97.5048 300.003C110.558 313.065 150.322 352.82 163.401 365.908C165.676 368.183 165.676 371.873 163.401 374.148C161.126 376.423 157.437 376.423 155.162 374.148C142.03 361.016 102.389 321.374 89.2656 308.251C86.9905 305.976 86.9905 302.287 89.2656 300.012V300.003Z" fill="#FAFAFC"/>
<path d="M89.2656 300.003C91.5406 297.728 95.2298 297.728 97.5048 300.003C110.558 313.065 150.322 352.82 163.401 365.908C165.676 368.183 165.676 371.873 163.401 374.148C161.126 376.423 157.437 376.423 155.162 374.148C142.03 361.016 102.389 321.374 89.2656 308.251C86.9905 305.976 86.9905 302.287 89.2656 300.012V300.003Z" fill="black" fill-opacity="0.2"/>
<path d="M47.6307 292.212L47.6483 292.195C49.9233 289.92 53.6125 289.92 55.8875 292.195C62.2295 298.528 74.2633 310.57 80.5965 316.903C82.8715 319.179 82.8715 322.868 80.5965 325.143L80.5613 325.178C78.3039 327.435 74.6498 327.435 72.3923 325.178C66.0592 318.845 53.9726 306.758 47.6307 300.416C45.3645 298.15 45.3645 294.478 47.6307 292.212Z" fill="#FAFAFC"/>
<path d="M47.6307 292.212L47.6483 292.195C49.9233 289.92 53.6125 289.92 55.8875 292.195C62.2295 298.528 74.2633 310.57 80.5965 316.903C82.8715 319.179 82.8715 322.868 80.5965 325.143L80.5613 325.178C78.3039 327.435 74.6498 327.435 72.3923 325.178C66.0592 318.845 53.9726 306.758 47.6307 300.416C45.3645 298.15 45.3645 294.478 47.6307 292.212Z" fill="black" fill-opacity="0.2"/>
<path d="M88.8348 333.382C91.1098 331.107 94.799 331.107 97.074 333.382C101.677 337.985 108.95 345.258 113.553 349.861C115.828 352.136 115.828 355.825 113.553 358.1C111.278 360.375 107.588 360.375 105.322 358.1C100.719 353.497 93.4463 346.224 88.8436 341.621C86.5685 339.346 86.5685 335.657 88.8436 333.382H88.8348Z" fill="#FAFAFC"/>
<path d="M88.8348 333.382C91.1098 331.107 94.799 331.107 97.074 333.382C101.677 337.985 108.95 345.258 113.553 349.861C115.828 352.136 115.828 355.825 113.553 358.1C111.278 360.375 107.588 360.375 105.322 358.1C100.719 353.497 93.4463 346.224 88.8436 341.621C86.5685 339.346 86.5685 335.657 88.8436 333.382H88.8348Z" fill="black" fill-opacity="0.2"/>
<path d="M-8.28724 100.997C-6.01222 98.7223 -2.32301 98.7223 -0.0479927 100.997C2.48175 103.527 5.66145 106.707 8.1912 109.237C10.4662 111.512 10.4662 115.201 8.1912 117.476C5.91619 119.751 2.22702 119.751 -0.0479927 117.476C-2.57774 114.946 -5.75749 111.766 -8.28724 109.237C-10.5623 106.962 -10.5623 103.272 -8.28724 100.997Z" fill="#FAFAFC"/>
<path d="M-8.28724 100.997C-6.01222 98.7223 -2.32301 98.7223 -0.0479927 100.997C2.48175 103.527 5.66145 106.707 8.1912 109.237C10.4662 111.512 10.4662 115.201 8.1912 117.476C5.91619 119.751 2.22702 119.751 -0.0479927 117.476C-2.57774 114.946 -5.75749 111.766 -8.28724 109.237C-10.5623 106.962 -10.5623 103.272 -8.28724 100.997Z" fill="black" fill-opacity="0.2"/>
<path d="M16.4295 125.705C18.7045 123.43 22.3937 123.43 24.6688 125.705C29.2715 130.308 36.5445 137.581 41.1473 142.175C43.4223 144.45 43.4223 148.139 41.1473 150.414C38.8722 152.689 35.183 152.689 32.908 150.414C28.3053 145.811 21.0322 138.538 16.4295 133.936C14.1545 131.661 14.1545 127.972 16.4295 125.697V125.705Z" fill="#FAFAFC"/>
<path d="M16.4295 125.705C18.7045 123.43 22.3937 123.43 24.6688 125.705C29.2715 130.308 36.5445 137.581 41.1473 142.175C43.4223 144.45 43.4223 148.139 41.1473 150.414C38.8722 152.689 35.183 152.689 32.908 150.414C28.3053 145.811 21.0322 138.538 16.4295 133.936C14.1545 131.661 14.1545 127.972 16.4295 125.697V125.705Z" fill="black" fill-opacity="0.2"/>
<path d="M49.3427 158.689L49.3778 158.654C51.6528 156.379 55.342 156.379 57.617 158.654C62.2286 163.256 69.4401 170.477 74.0604 175.097C74.0692 175.106 74.0868 175.123 74.0955 175.132C80.4287 181.465 92.4713 193.508 98.8045 199.841C101.079 202.116 101.079 205.805 98.8045 208.08C96.5295 210.355 92.8402 210.355 90.5652 208.08C84.2321 201.747 72.1894 189.704 65.8563 183.371C61.2272 178.742 53.963 171.478 49.3515 166.866C47.094 164.609 47.094 160.955 49.3515 158.697L49.3427 158.689Z" fill="#FAFAFC"/>
<path d="M49.3427 158.689L49.3778 158.654C51.6528 156.379 55.342 156.379 57.617 158.654C62.2286 163.256 69.4401 170.477 74.0604 175.097C74.0692 175.106 74.0868 175.123 74.0955 175.132C80.4287 181.465 92.4713 193.508 98.8045 199.841C101.079 202.116 101.079 205.805 98.8045 208.08C96.5295 210.355 92.8402 210.355 90.5652 208.08C84.2321 201.747 72.1894 189.704 65.8563 183.371C61.2272 178.742 53.963 171.478 49.3515 166.866C47.094 164.609 47.094 160.955 49.3515 158.697L49.3427 158.689Z" fill="black" fill-opacity="0.2"/>
<path d="M-16.0877 59.3703C-13.8127 57.0953 -10.1235 57.0953 -7.84845 59.3703C4.14149 71.3515 37.8275 105.046 49.8174 117.027C52.0924 119.302 52.0924 122.992 49.8174 125.267C47.5424 127.542 43.8532 127.542 41.5782 125.267C29.597 113.286 -4.09776 79.5907 -16.0877 67.6008C-18.3627 65.3258 -18.3627 61.6366 -16.0877 59.3615V59.3703Z" fill="#FAFAFC"/>
<path d="M-16.0877 59.3703C-13.8127 57.0953 -10.1235 57.0953 -7.84845 59.3703C4.14149 71.3515 37.8275 105.046 49.8174 117.027C52.0924 119.302 52.0924 122.992 49.8174 125.267C47.5424 127.542 43.8532 127.542 41.5782 125.267C29.597 113.286 -4.09776 79.5907 -16.0877 67.6008C-18.3627 65.3258 -18.3627 61.6366 -16.0877 59.3615V59.3703Z" fill="black" fill-opacity="0.2"/>
<path d="M58.0566 133.515C60.3316 131.24 64.0209 131.24 66.2959 133.515C72.629 139.848 84.6805 151.891 91.0048 158.224C93.5346 160.762 96.7055 163.933 99.2353 166.463C101.51 168.738 101.51 172.427 99.2353 174.702C96.9603 176.977 93.271 176.977 91.0048 174.702C88.4751 172.173 85.3041 168.993 82.7656 166.463C76.4236 160.121 64.3898 148.087 58.0566 141.754C55.7816 139.479 55.7816 135.79 58.0566 133.515Z" fill="#FAFAFC"/>
<path d="M58.0566 133.515C60.3316 131.24 64.0209 131.24 66.2959 133.515C72.629 139.848 84.6805 151.891 91.0048 158.224C93.5346 160.762 96.7055 163.933 99.2353 166.463C101.51 168.738 101.51 172.427 99.2353 174.702C96.9603 176.977 93.271 176.977 91.0048 174.702C88.4751 172.173 85.3041 168.993 82.7656 166.463C76.4236 160.121 64.3898 148.087 58.0566 141.754C55.7816 139.479 55.7816 135.79 58.0566 133.515Z" fill="black" fill-opacity="0.2"/>
<path d="M-0.478661 142.614C1.79635 140.339 5.48557 140.339 7.76059 142.614C15.9823 150.836 32.6628 167.517 40.7176 175.571C42.9926 177.846 42.9926 181.536 40.7176 183.811C38.4426 186.086 34.7533 186.086 32.4783 183.811C24.406 175.738 7.60247 158.935 -0.478661 150.854C-2.75368 148.579 -2.75368 144.889 -0.478661 142.614Z" fill="#FAFAFC"/>
<path d="M-0.478661 142.614C1.79635 140.339 5.48557 140.339 7.76059 142.614C15.9823 150.836 32.6628 167.517 40.7176 175.571C42.9926 177.846 42.9926 181.536 40.7176 183.811C38.4426 186.086 34.7533 186.086 32.4783 183.811C24.406 175.738 7.60247 158.935 -0.478661 150.854C-2.75368 148.579 -2.75368 144.889 -0.478661 142.614Z" fill="black" fill-opacity="0.2"/>
<path d="M-17.3878 159.524C-15.1127 157.249 -11.4235 157.249 -9.14851 159.524C3.86914 172.533 23.4395 192.112 40.2782 208.95C48.1748 216.847 65.3297 234.002 73.2264 241.899C75.5014 244.174 75.5014 247.863 73.2264 250.138C70.9513 252.413 67.2621 252.413 64.9871 250.138C57.0904 242.241 39.9356 225.086 32.0389 217.19C20.1193 205.27 -4.65997 180.491 -17.3878 167.763C-19.6628 165.488 -19.6628 161.799 -17.3878 159.524Z" fill="#FAFAFC"/>
<path d="M-17.3878 159.524C-15.1127 157.249 -11.4235 157.249 -9.14851 159.524C3.86914 172.533 23.4395 192.112 40.2782 208.95C48.1748 216.847 65.3297 234.002 73.2264 241.899C75.5014 244.174 75.5014 247.863 73.2264 250.138C70.9513 252.413 67.2621 252.413 64.9871 250.138C57.0904 242.241 39.9356 225.086 32.0389 217.19C20.1193 205.27 -4.65997 180.491 -17.3878 167.763C-19.6628 165.488 -19.6628 161.799 -17.3878 159.524Z" fill="black" fill-opacity="0.2"/>
<path d="M-67.2539 143.484C-64.9789 141.209 -61.2897 141.209 -59.0147 143.484C-45.9619 156.536 -6.19751 196.301 6.88163 209.38C9.15664 211.655 9.15664 215.344 6.88163 217.619C4.60662 219.894 0.917398 219.894 -1.35762 217.619C-14.4895 204.487 -54.1309 164.855 -67.2539 151.723C-69.529 149.448 -69.529 145.759 -67.2539 143.484Z" fill="#FAFAFC"/>
<path d="M-67.2539 143.484C-64.9789 141.209 -61.2897 141.209 -59.0147 143.484C-45.9619 156.536 -6.19751 196.301 6.88163 209.38C9.15664 211.655 9.15664 215.344 6.88163 217.619C4.60662 219.894 0.917398 219.894 -1.35762 217.619C-14.4895 204.487 -54.1309 164.855 -67.2539 151.723C-69.529 149.448 -69.529 145.759 -67.2539 143.484Z" fill="black" fill-opacity="0.2"/>
<path d="M13.7155 228.231C13.7595 228.081 13.7858 227.932 13.8473 227.792C13.8473 227.774 13.8649 227.765 13.8736 227.748C14.1547 227.062 14.5763 226.421 15.1297 225.868L15.1648 225.833C17.4223 223.575 21.0852 223.575 23.3339 225.833C29.7724 232.271 41.6218 244.112 48.0779 250.577C50.3529 252.852 50.3529 256.541 48.0779 258.816C45.8029 261.091 42.1137 261.091 39.8387 258.816C33.5055 252.483 21.4629 240.44 15.1297 234.107C13.5399 232.517 13.0831 230.242 13.7155 228.239V228.231Z" fill="#FAFAFC"/>
<path d="M13.7155 228.231C13.7595 228.081 13.7858 227.932 13.8473 227.792C13.8473 227.774 13.8649 227.765 13.8736 227.748C14.1547 227.062 14.5763 226.421 15.1297 225.868L15.1648 225.833C17.4223 223.575 21.0852 223.575 23.3339 225.833C29.7724 232.271 41.6218 244.112 48.0779 250.577C50.3529 252.852 50.3529 256.541 48.0779 258.816C45.8029 261.091 42.1137 261.091 39.8387 258.816C33.5055 252.483 21.4629 240.44 15.1297 234.107C13.5399 232.517 13.0831 230.242 13.7155 228.239V228.231Z" fill="black" fill-opacity="0.2"/>
<path d="M-2.52507 243.681C-2.31426 243.356 -2.05955 243.058 -1.77847 242.768C0.496548 240.493 4.18576 240.493 6.46078 242.768C14.3575 250.664 31.5123 267.819 39.409 275.716C41.684 277.991 41.684 281.68 39.409 283.955C37.134 286.23 33.4447 286.23 31.1697 283.955C23.2731 276.059 6.11821 258.904 -1.77847 251.007C-2.34941 250.436 -2.77106 249.786 -3.06092 249.083C-3.77242 247.335 -3.5967 245.306 -2.52507 243.681Z" fill="#FAFAFC"/>
<path d="M-2.52507 243.681C-2.31426 243.356 -2.05955 243.058 -1.77847 242.768C0.496548 240.493 4.18576 240.493 6.46078 242.768C14.3575 250.664 31.5123 267.819 39.409 275.716C41.684 277.991 41.684 281.68 39.409 283.955C37.134 286.23 33.4447 286.23 31.1697 283.955C23.2731 276.059 6.11821 258.904 -1.77847 251.007C-2.34941 250.436 -2.77106 249.786 -3.06092 249.083C-3.77242 247.335 -3.5967 245.306 -2.52507 243.681Z" fill="black" fill-opacity="0.2"/>
<path d="M263.994 339.451L264.029 339.416C266.287 337.158 269.949 337.158 272.198 339.416C276.801 344.01 284.091 351.309 288.712 355.921C290.987 358.196 290.987 361.885 288.712 364.16C286.437 366.435 282.747 366.435 280.481 364.16C275.879 359.557 268.606 352.284 264.003 347.681C261.728 345.406 261.728 341.717 264.003 339.442L263.994 339.451Z" fill="#FAFAFC"/>
<path d="M263.994 339.451L264.029 339.416C266.287 337.158 269.949 337.158 272.198 339.416C276.801 344.01 284.091 351.309 288.712 355.921C290.987 358.196 290.987 361.885 288.712 364.16C286.437 366.435 282.747 366.435 280.481 364.16C275.879 359.557 268.606 352.284 264.003 347.681C261.728 345.406 261.728 341.717 264.003 339.442L263.994 339.451Z" fill="black" fill-opacity="0.2"/>
</g>
<defs>
<clipPath id="clip0_965_2594">
<rect width="722.26" height="722.26" fill="white" transform="matrix(-1 0 0 1 562.258 0)"/>
</clipPath>
</defs>
</svg>
