<svg width="38" height="40" viewBox="0 0 38 40" fill="none" xmlns="http://www.w3.org/2000/svg">
<g id="Abstract Design">
<path id="Vector" fill-rule="evenodd" clip-rule="evenodd" d="M25.05 37.3275C28.5361 36.3492 32.186 35.8557 35.7266 35.4036C36.4892 35.3088 37.1972 35.8377 37.2517 36.5829C37.3607 37.3286 36.8156 38.0105 36.1075 38.1053C32.6758 38.5406 29.1355 39.0063 25.8128 39.9481C25.1047 40.1523 24.3417 39.7318 24.1239 39.0085C23.906 38.2856 24.3419 37.5323 25.05 37.3275Z" fill="#F4F3F5"/>
<path id="Vector_2" fill-rule="evenodd" clip-rule="evenodd" d="M14.483 23.4575C20.0936 17.732 26.4122 12.7436 31.9138 6.86449C32.404 6.31542 33.2756 6.28601 33.8203 6.79858C34.365 7.3117 34.4193 8.17452 33.8745 8.72359C28.373 14.6195 22.0543 19.6243 16.4438 25.3667C15.8991 25.9027 15.0278 25.9103 14.483 25.383C13.9928 24.8563 13.9383 23.9935 14.483 23.4575Z" fill="#F4F3F5"/>
<path id="Vector_3" fill-rule="evenodd" clip-rule="evenodd" d="M3.96939 1.43573C3.80598 4.71271 3.64289 7.98969 3.47947 11.2672C3.47947 12.0178 2.8255 12.5974 2.06291 12.5609C1.30031 12.5239 0.755919 11.8849 0.755919 11.1338C0.919333 7.85133 1.08243 4.56945 1.24584 1.28756C1.30031 0.536953 1.95407 -0.0388069 2.71667 0.00204639C3.42479 0.0428997 4.02386 0.68566 3.96939 1.43573Z" fill="#F4F3F5"/>
</g>
</svg>
