<svg width="37" height="37" viewBox="0 0 37 37" fill="none" xmlns="http://www.w3.org/2000/svg">
<g id="Vector">
<path d="M35.214 2.31954C32.939 0.0445276 29.2498 0.0445276 26.9748 2.31954C20.6416 8.65269 8.59897 20.6953 2.25704 27.0285C-0.0179724 29.3035 -0.0179724 32.9927 2.25704 35.2677C4.53206 37.5427 8.22127 37.5427 10.4963 35.2677C16.9436 28.8204 28.7667 16.9973 35.214 10.55C37.489 8.27498 37.489 4.58576 35.214 2.31075V2.31954Z" fill="#FAFAFC"/>
<path d="M35.214 2.31954C32.939 0.0445276 29.2498 0.0445276 26.9748 2.31954C20.6416 8.65269 8.59897 20.6953 2.25704 27.0285C-0.0179724 29.3035 -0.0179724 32.9927 2.25704 35.2677C4.53206 37.5427 8.22127 37.5427 10.4963 35.2677C16.9436 28.8204 28.7667 16.9973 35.214 10.55C37.489 8.27498 37.489 4.58576 35.214 2.31075V2.31954Z" fill="black" fill-opacity="0.2"/>
</g>
</svg>
