<svg width="37" height="37" viewBox="0 0 37 37" fill="none" xmlns="http://www.w3.org/2000/svg">
<g id="Vector">
<path d="M2.04382 2.31954C4.31883 0.0445276 8.00805 0.0445276 10.2831 2.31954C16.6162 8.65269 28.6588 20.6953 35.0008 27.0285C37.2758 29.3035 37.2758 32.9927 35.0008 35.2677C32.7258 37.5427 29.0365 37.5427 26.7615 35.2677C20.3142 28.8204 8.49115 16.9973 2.04382 10.55C-0.231201 8.27498 -0.231201 4.58576 2.04382 2.31075V2.31954Z" fill="#FAFAFC"/>
<path d="M2.04382 2.31954C4.31883 0.0445276 8.00805 0.0445276 10.2831 2.31954C16.6162 8.65269 28.6588 20.6953 35.0008 27.0285C37.2758 29.3035 37.2758 32.9927 35.0008 35.2677C32.7258 37.5427 29.0365 37.5427 26.7615 35.2677C20.3142 28.8204 8.49115 16.9973 2.04382 10.55C-0.231201 8.27498 -0.231201 4.58576 2.04382 2.31075V2.31954Z" fill="black" fill-opacity="0.2"/>
</g>
</svg>
