<svg width="24" height="24" viewBox="0 0 24 24" fill="none" xmlns="http://www.w3.org/2000/svg">
<path d="M12 6.37503L13.8041 4.34537C14.4406 3.62934 15.5594 3.62934 16.1958 4.34537L22.0551 10.937C22.594 11.5433 22.594 12.4568 22.0551 13.063L16.1958 19.6547C15.5594 20.3707 14.4406 20.3707 13.8041 19.6547L12 17.625M10.1958 19.6547L16.0551 13.063C16.594 12.4568 16.594 11.5433 16.0551 10.937L10.1958 4.34537C9.55937 3.62934 8.44059 3.62934 7.80413 4.34537L1.94485 10.937C1.406 11.5433 1.406 12.4568 1.94486 13.063L7.80413 19.6547C8.44059 20.3707 9.55937 20.3707 10.1958 19.6547Z" stroke="#2C2B38" stroke-width="1.5" stroke-linecap="round" stroke-linejoin="round"/>
</svg>
