<svg width="25" height="25" viewBox="0 0 25 25" fill="none" xmlns="http://www.w3.org/2000/svg">
<path fill-rule="evenodd" clip-rule="evenodd" d="M3.3335 7.58325C3.3335 7.16904 3.66928 6.83325 4.0835 6.83325H20.5835C20.9977 6.83325 21.3335 7.16904 21.3335 7.58325C21.3335 7.99747 20.9977 8.33325 20.5835 8.33325H4.0835C3.66928 8.33325 3.3335 7.99747 3.3335 7.58325ZM3.3335 12.8333C3.3335 12.419 3.66928 12.0833 4.0835 12.0833H20.5835C20.9977 12.0833 21.3335 12.419 21.3335 12.8333C21.3335 13.2475 20.9977 13.5833 20.5835 13.5833H4.0835C3.66928 13.5833 3.3335 13.2475 3.3335 12.8333ZM11.5835 18.0833C11.5835 17.669 11.9193 17.3333 12.3335 17.3333H20.5835C20.9977 17.3333 21.3335 17.669 21.3335 18.0833C21.3335 18.4975 20.9977 18.8333 20.5835 18.8333H12.3335C11.9193 18.8333 11.5835 18.4975 11.5835 18.0833Z" fill="#1A191C"/>
</svg>
