<svg width="24" height="25" viewBox="0 0 24 25" fill="none" xmlns="http://www.w3.org/2000/svg">
<path fill-rule="evenodd" clip-rule="evenodd" d="M12 3.20703C9.5556 3.20703 9.2496 3.21723 8.2896 3.26103C7.3314 3.30483 6.6768 3.45723 6.1044 3.67983C5.5044 3.90543 4.9602 4.25943 4.5102 4.71783C4.05253 5.16731 3.69831 5.71113 3.4722 6.31143C3.2508 6.88383 3.0978 7.53903 3.054 8.49723C3.0108 9.45663 3 9.76203 3 12.207C3 14.652 3.0102 14.9574 3.054 15.9174C3.0978 16.8756 3.2502 17.5302 3.4728 18.1026C3.6984 18.7026 4.0524 19.2468 4.5108 19.6968C4.96029 20.1545 5.50411 20.5087 6.1044 20.7348C6.6768 20.9568 7.3314 21.1092 8.2896 21.153C9.2496 21.1968 9.5556 21.207 12 21.207C14.4444 21.207 14.7504 21.1968 15.7104 21.153C16.6686 21.1092 17.3232 20.9568 17.8956 20.7342C18.4956 20.5086 19.0398 20.1546 19.4898 19.6962C19.9475 19.2468 20.3017 18.7029 20.5278 18.1026C20.7498 17.5302 20.9022 16.8756 20.946 15.9174C20.9898 14.9574 21 14.6514 21 12.207C21 9.76263 20.9898 9.45663 20.946 8.49663C20.9022 7.53843 20.7498 6.88383 20.5272 6.31143C20.3012 5.71087 19.947 5.16682 19.4892 4.71723C19.0397 4.25956 18.4959 3.90535 17.8956 3.67923C17.3232 3.45783 16.668 3.30483 15.7098 3.26103C14.7504 3.21783 14.445 3.20703 12 3.20703ZM12 4.82883C14.403 4.82883 14.688 4.83783 15.6372 4.88103C16.5144 4.92123 16.9908 5.06703 17.3082 5.19123C17.7282 5.35383 18.0282 5.54943 18.3432 5.86383C18.6582 6.17883 18.8532 6.47883 19.0158 6.89883C19.1394 7.21623 19.2858 7.69263 19.326 8.56983C19.3692 9.51903 19.3782 9.80403 19.3782 12.207C19.3782 14.61 19.3692 14.895 19.326 15.8442C19.2858 16.7214 19.14 17.1978 19.0158 17.5152C18.8718 17.9062 18.6419 18.2598 18.3432 18.5502C18.0528 18.849 17.6992 19.0789 17.3082 19.2228C16.9908 19.3464 16.5144 19.4928 15.6372 19.533C14.688 19.5762 14.4036 19.5852 12 19.5852C9.5964 19.5852 9.312 19.5762 8.3628 19.533C7.4856 19.4928 7.0092 19.347 6.6918 19.2228C6.30087 19.0788 5.9472 18.849 5.6568 18.5502C5.35811 18.2598 5.12828 17.9061 4.9842 17.5152C4.8606 17.1978 4.7142 16.7214 4.674 15.8442C4.6308 14.895 4.6218 14.61 4.6218 12.207C4.6218 9.80403 4.6308 9.51903 4.674 8.56983C4.7142 7.69263 4.86 7.21623 4.9842 6.89883C5.1468 6.47883 5.3424 6.17883 5.6568 5.86383C5.94716 5.56506 6.30085 5.33522 6.6918 5.19123C7.0092 5.06763 7.4856 4.92123 8.3628 4.88103C9.312 4.83783 9.597 4.82883 12 4.82883Z" fill="#262158"/>
<path fill-rule="evenodd" clip-rule="evenodd" d="M12 15.2098C11.6056 15.2098 11.2151 15.1321 10.8508 14.9812C10.4865 14.8303 10.1554 14.6091 9.87655 14.3303C9.5977 14.0514 9.3765 13.7204 9.22558 13.356C9.07467 12.9917 8.99699 12.6012 8.99699 12.2068C8.99699 11.8125 9.07467 11.422 9.22558 11.0576C9.3765 10.6933 9.5977 10.3622 9.87655 10.0834C10.1554 9.80452 10.4865 9.58332 10.8508 9.43241C11.2151 9.2815 11.6056 9.20382 12 9.20382C12.7964 9.20382 13.5603 9.52021 14.1234 10.0834C14.6866 10.6466 15.003 11.4104 15.003 12.2068C15.003 13.0033 14.6866 13.7671 14.1234 14.3303C13.5603 14.8934 12.7964 15.2098 12 15.2098ZM12 7.58082C10.7731 7.58082 9.59646 8.0682 8.72892 8.93574C7.86137 9.80329 7.37399 10.9799 7.37399 12.2068C7.37399 13.4337 7.86137 14.6104 8.72892 15.4779C9.59646 16.3454 10.7731 16.8328 12 16.8328C13.2269 16.8328 14.4035 16.3454 15.2711 15.4779C16.1386 14.6104 16.626 13.4337 16.626 12.2068C16.626 10.9799 16.1386 9.80329 15.2711 8.93574C14.4035 8.0682 13.2269 7.58082 12 7.58082ZM17.9718 7.49682C17.9718 7.78683 17.8566 8.06497 17.6515 8.27004C17.4464 8.47511 17.1683 8.59032 16.8783 8.59032C16.5883 8.59032 16.3101 8.47511 16.1051 8.27004C15.9 8.06497 15.7848 7.78683 15.7848 7.49682C15.7848 7.20681 15.9 6.92867 16.1051 6.7236C16.3101 6.51853 16.5883 6.40332 16.8783 6.40332C17.1683 6.40332 17.4464 6.51853 17.6515 6.7236C17.8566 6.92867 17.9718 7.20681 17.9718 7.49682Z" fill="#262158"/>
</svg>
