<svg width="32" height="32" viewBox="0 0 32 32" fill="none" xmlns="http://www.w3.org/2000/svg">
<path fill-rule="evenodd" clip-rule="evenodd" d="M10.3182 3.5L27.3636 3.5C27.665 3.5 27.9541 3.61972 28.1672 3.83283C28.3803 4.04594 28.5 4.33498 28.5 4.63636V21.6818C28.5 22.3094 27.9912 22.8182 27.3636 22.8182C26.736 22.8182 26.2273 22.3094 26.2273 21.6818V7.37979L5.43989 28.1672C4.99612 28.6109 4.27661 28.6109 3.83283 28.1672C3.38906 27.7234 3.38906 27.0039 3.83283 26.5601L24.6202 5.77273L10.3182 5.77273C9.69058 5.77273 9.18182 5.26396 9.18182 4.63636C9.18182 4.00877 9.69058 3.5 10.3182 3.5Z" fill="#F4F3F5"/>
</svg>
