<svg width="32" height="32" viewBox="0 0 32 32" fill="none" xmlns="http://www.w3.org/2000/svg">
<path d="M14.7759 4.17029C15.2391 3.09688 16.7611 3.09688 17.2244 4.17029L20.1311 10.9061C20.3272 11.3606 20.759 11.6691 21.2525 11.7072L28.7067 12.2832C29.9027 12.3756 30.3779 13.877 29.4529 14.6408L23.8471 19.2691C23.4517 19.5956 23.2785 20.1199 23.4017 20.6176L25.1269 27.5887C25.4107 28.7351 24.1739 29.6572 23.1562 29.0581L16.6766 25.2434C16.2591 24.9977 15.7412 24.9977 15.3237 25.2434L8.84406 29.0581C7.82633 29.6572 6.58962 28.7351 6.87334 27.5887L8.5986 20.6176C8.72178 20.1199 8.54862 19.5956 8.15321 19.2691L2.54736 14.6408C1.62235 13.877 2.09755 12.3756 3.29354 12.2832L10.7477 11.7072C11.2413 11.6691 11.6731 11.3606 11.8692 10.9061L14.7759 4.17029Z" fill="#1A191C"/>
</svg>
