<svg width="32" height="32" viewBox="0 0 32 32" fill="none" xmlns="http://www.w3.org/2000/svg">
<g clip-path="url(#clip0_130_120)">
<path d="M24.4853 23.152L16 31.6373L7.51467 23.152C5.83646 21.4738 4.69358 19.3356 4.23057 17.0078C3.76756 14.68 4.00521 12.2672 4.91346 10.0745C5.82172 7.88184 7.35979 6.0077 9.33318 4.68913C11.3066 3.37056 13.6266 2.66678 16 2.66678C18.3734 2.66678 20.6934 3.37056 22.6668 4.68913C24.6402 6.0077 26.1783 7.88184 27.0865 10.0745C27.9948 12.2672 28.2324 14.68 27.7694 17.0078C27.3064 19.3356 26.1636 21.4738 24.4853 23.152ZM16 17.3333C16.7072 17.3333 17.3855 17.0524 17.8856 16.5523C18.3857 16.0522 18.6667 15.3739 18.6667 14.6667C18.6667 13.9594 18.3857 13.2812 17.8856 12.7811C17.3855 12.281 16.7072 12 16 12C15.2928 12 14.6145 12.281 14.1144 12.7811C13.6143 13.2812 13.3333 13.9594 13.3333 14.6667C13.3333 15.3739 13.6143 16.0522 14.1144 16.5523C14.6145 17.0524 15.2928 17.3333 16 17.3333Z" fill="#1A191C"/>
</g>
<defs>
<clipPath id="clip0_130_120">
<rect width="32" height="32" fill="white"/>
</clipPath>
</defs>
</svg>
